<?xml version="1.0" encoding="UTF-8"?>
<svg width="21px" height="21px" viewBox="0 0 21 21" version="1.1" xmlns="http://www.w3.org/2000/svg" xmlns:xlink="http://www.w3.org/1999/xlink">
    <!-- Generator: Sketch 48.2 (47327) - http://www.bohemiancoding.com/sketch -->
    <title>Login</title>
    <desc>Created with Sketch.</desc>
    <defs>
        <circle id="path-1" cx="9.42916667" cy="9.42916667" r="9.42916667"></circle>
        <rect id="path-2" x="0" y="0" width="12" height="11" rx="0.945"></rect>
    </defs>
    <g id="Desktop" stroke="none" stroke-width="1" fill="none" fill-rule="evenodd" transform="translate(-304.000000, -972.000000)">
        <g id="Group-7-Copy-2" transform="translate(293.000000, 968.000000)">
            <g id="Login" transform="translate(12.000000, 5.000000)">
                <g id="Oval-2-Copy-2">
                    <use fill="#FFFFFF" fill-rule="evenodd" xlink:href="#path-1"></use>
                    <circle stroke="#F8C828" stroke-width="1" cx="9.42916667" cy="9.42916667" r="9.92916667"></circle>
                </g>
                <g id="Group-6-Copy-2" transform="translate(3.500000, 4.000000)">
                    <g id="Group-5">
                        <g id="Rectangle-3">
                            <use fill="#FFE079" fill-rule="evenodd" xlink:href="#path-2"></use>
                            <rect stroke="#494949" stroke-width="0.5" x="0.25" y="0.25" width="11.5" height="10.5" rx="0.945"></rect>
                        </g>
                        <path d="M1.64270016,1 C1.49296292,1 1.37142857,1.11816393 1.37142857,1.26374863 C1.37142857,1.40933332 1.49296292,1.52747253 1.64270016,1.52747253 C1.79243739,1.52747253 1.91397174,1.40930859 1.91397174,1.2637239 C1.91397174,1.11813921 1.79243739,1 1.64270016,1 Z" id="Shape" fill="#494949" fill-rule="nonzero"></path>
                        <path d="M0.165550741,2.09421418 L11.7010914,2.09421418" id="Path-6" stroke="#494949" stroke-width="0.5"></path>
                    </g>
                    <g id="Group-4" transform="translate(2.742857, 3.333333)" stroke="#494949" stroke-width="0.5">
                        <g id="Group-3">
                            <ellipse id="Oval-3" fill="#D0DDFF" cx="3.08571429" cy="3" rx="3.08571429" ry="3"></ellipse>
                            <path d="M3.00102493,3.83532624 C3.71167137,3.83532624 4.28776414,3.27523605 4.28776414,2.58432979 C4.28776414,1.89342352 3.71167137,1.33333333 3.00102493,1.33333333 C2.29037848,1.33333333 1.71428571,1.89342352 1.71428571,2.58432979 C1.71428571,3.27523605 2.29037848,3.83532624 3.00102493,3.83532624 Z" id="Oval-3"></path>
                            <path d="M5.01906317,5.38072384 C4.82739083,4.35412889 3.95573696,4 2.91428571,4 C1.87283447,4 1.2838864,4.58540082 1.02470194,5.38072384" id="Oval-3-Copy"></path>
                        </g>
                    </g>
                    <path d="M4.04270016,1 C3.89296292,1 3.77142857,1.11816393 3.77142857,1.26374863 C3.77142857,1.40933332 3.89296292,1.52747253 4.04270016,1.52747253 C4.19243739,1.52747253 4.31397174,1.40930859 4.31397174,1.2637239 C4.31397174,1.11813921 4.19243739,1 4.04270016,1 Z" id="Shape" fill="#494949" fill-rule="nonzero"></path>
                    <path d="M2.84270016,1 C2.69296292,1 2.57142857,1.11816393 2.57142857,1.26374863 C2.57142857,1.40933332 2.69296292,1.52747253 2.84270016,1.52747253 C2.99243739,1.52747253 3.11397174,1.40930859 3.11397174,1.2637239 C3.11397174,1.11813921 2.99243739,1 2.84270016,1 Z" id="Shape" fill="#494949" fill-rule="nonzero"></path>
                </g>
            </g>
        </g>
    </g>
</svg>